<svg xmlns="http://www.w3.org/2000/svg" version="1.1" width="1024" height="572">
<rect x="0" y="0" width="1024" height="572" fill="#e3d6ce" />
<g transform="scale(4.000000) translate(0.5 0.5)">
<polygon fill="#d45d44" fill-opacity="0.501961" points="62,56 233,29 124,158" />
<polygon fill="#d4ffff" fill-opacity="0.501961" points="-16,2 161,-16 16,158" />
<polygon fill="#ffffff" fill-opacity="0.501961" points="57,141 271,158 268,98" />
<polygon fill="#42ceed" fill-opacity="0.501961" points="94,88 83,27 14,67" />
<polygon fill="#aeff83" fill-opacity="0.501961" points="239,-16 202,87 141,28" />
<polygon fill="#ff3b4e" fill-opacity="0.501961" points="81,129 190,63 172,123" />
<polygon fill="#faffff" fill-opacity="0.501961" points="256,128 149,152 260,-16" />
<polygon fill="#ffffff" fill-opacity="0.501961" points="125,44 -16,21 208,-16" />
<polygon fill="#fe2e45" fill-opacity="0.501961" points="78,89 102,125 125,42" />
<polygon fill="#fffdff" fill-opacity="0.501961" points="115,158 -16,150 -16,8" />
<polygon fill="#fffbff" fill-opacity="0.501961" points="153,70 131,54 126,116" />
<polygon fill="#99d44b" fill-opacity="0.501961" points="233,38 196,4 210,65" />
<polygon fill="#ef423d" fill-opacity="0.501961" points="92,57 124,41 178,60" />
<polygon fill="#ffffff" fill-opacity="0.501961" points="195,123 184,69 271,65" />
<polygon fill="#fb4450" fill-opacity="0.501961" points="96,88 142,70 90,134" />
<polygon fill="#ffffff" fill-opacity="0.501961" points="106,124 73,158 165,135" />
<polygon fill="#9fcc45" fill-opacity="0.501961" points="178,3 148,33 169,82" />
<polygon fill="#46c8e1" fill-opacity="0.501961" points="74,87 43,39 35,81" />
<polygon fill="#fffbff" fill-opacity="0.501961" points="162,-16 249,-16 243,26" />
<polygon fill="#f34b4f" fill-opacity="0.501961" points="163,121 147,46 187,96" />
<polygon fill="#ffffff" fill-opacity="0.501961" points="117,67 136,56 118,81" />
<polygon fill="#3cbcd8" fill-opacity="0.501961" points="69,36 97,53 88,88" />
<polygon fill="#ffffff" fill-opacity="0.501961" points="22,103 96,158 79,84" />
<polygon fill="#ffffff" fill-opacity="0.501961" points="165,-16 147,44 -16,7" />
<polygon fill="#ffffff" fill-opacity="0.501961" points="190,61 186,39 201,22" />
<polygon fill="#30c5e0" fill-opacity="0.501961" points="71,36 32,54 48,38" />
<polygon fill="#fdffff" fill-opacity="0.501961" points="82,151 194,110 159,158" />
<polygon fill="#f0fef8" fill-opacity="0.501961" points="54,45 67,78 75,49" />
<polygon fill="#a7ca58" fill-opacity="0.501961" points="206,6 169,11 231,30" />
<polygon fill="#a3c54b" fill-opacity="0.501961" points="148,42 210,65 163,73" />
<polygon fill="#f4585f" fill-opacity="0.501961" points="83,138 129,104 118,78" />
<polygon fill="#ffffff" fill-opacity="0.501961" points="146,66 150,81 127,99" />
<polygon fill="#f3565d" fill-opacity="0.501961" points="162,53 161,123 127,129" />
<polygon fill="#f14047" fill-opacity="0.501961" points="141,75 118,91 132,65" />
<polygon fill="#f6edf0" fill-opacity="0.501961" points="-16,-3 65,0 12,95" />
<polygon fill="#ffffff" fill-opacity="0.501961" points="130,58 116,69 144,66" />
<polygon fill="#ffffff" fill-opacity="0.501961" points="215,-16 60,26 103,51" />
<polygon fill="#f7ffff" fill-opacity="0.501961" points="130,112 127,103 139,108" />
<polygon fill="#ffffff" fill-opacity="0.501961" points="199,23 174,27 185,16" />
<polygon fill="#f95662" fill-opacity="0.501961" points="92,81 100,50 143,41" />
<polygon fill="#fafdff" fill-opacity="0.501961" points="176,136 190,75 264,37" />
<polygon fill="#f25e64" fill-opacity="0.501961" points="138,87 186,88 134,115" />
<polygon fill="#f9f3ff" fill-opacity="0.501961" points="184,1 244,18 227,-16" />
<polygon fill="#faffff" fill-opacity="0.501961" points="106,126 37,158 182,133" />
<polygon fill="#fafafc" fill-opacity="0.501961" points="76,158 4,54 93,114" />
<polygon fill="#f15c61" fill-opacity="0.501961" points="140,102 89,110 80,89" />
<polygon fill="#ffffff" fill-opacity="0.501961" points="148,43 88,43 153,15" />
<polygon fill="#a8d966" fill-opacity="0.501961" points="215,61 190,49 230,42" />
<polygon fill="#62d7eb" fill-opacity="0.501961" points="51,86 77,85 91,42" />
<polygon fill="#eceff4" fill-opacity="0.501961" points="231,-16 271,127 224,158" />
<polygon fill="#f5f7f9" fill-opacity="0.501961" points="135,137 229,132 232,80" />
<polygon fill="#ee5f5f" fill-opacity="0.501961" points="177,110 145,62 187,88" />
<polygon fill="#f85562" fill-opacity="0.501961" points="147,43 163,68 109,47" />
<polygon fill="#6298ab" fill-opacity="0.501961" points="97,56 74,84 90,85" />
<polygon fill="#ffffff" fill-opacity="0.501961" points="153,68 128,86 132,99" />
<polygon fill="#23bcd8" fill-opacity="0.501961" points="68,53 59,65 60,53" />
<polygon fill="#ffffff" fill-opacity="0.501961" points="128,57 117,72 124,78" />
<polygon fill="#acd567" fill-opacity="0.501961" points="183,6 222,17 157,18" />
<polygon fill="#afe57a" fill-opacity="0.501961" points="185,33 155,40 189,70" />
<polygon fill="#ffffff" fill-opacity="0.501961" points="187,49 194,20 200,30" />
<polygon fill="#ffffff" fill-opacity="0.501961" points="185,16 174,33 180,34" />
<polygon fill="#feffff" fill-opacity="0.501961" points="217,64 186,72 187,109" />
<polygon fill="#ef5a5f" fill-opacity="0.501961" points="99,103 131,114 86,133" />
<polygon fill="#b0e179" fill-opacity="0.501961" points="231,28 196,69 193,39" />
<polygon fill="#f36166" fill-opacity="0.501961" points="128,128 123,79 89,76" />
<polygon fill="#a8a135" fill-opacity="0.501961" points="168,53 181,67 159,80" />
<polygon fill="#ffffff" fill-opacity="0.501961" points="135,59 144,62 147,83" />
<polygon fill="#f0eef0" fill-opacity="0.501961" points="76,133 -16,-4 10,158" />
<polygon fill="#fbf8f9" fill-opacity="0.501961" points="96,13 12,30 21,54" />
<polygon fill="#59cbdf" fill-opacity="0.501961" points="50,85 39,46 33,69" />
<polygon fill="#a9ce5b" fill-opacity="0.501961" points="193,31 170,46 187,24" />
<polygon fill="#ffffff" fill-opacity="0.501961" points="73,54 63,69 69,46" />
<polygon fill="#f35a5f" fill-opacity="0.501961" points="136,56 100,69 97,55" />
<polygon fill="#edeef2" fill-opacity="0.501961" points="271,105 218,7 252,-16" />
<polygon fill="#5ccde1" fill-opacity="0.501961" points="52,38 78,40 34,54" />
<polygon fill="#fdffff" fill-opacity="0.501961" points="27,95 92,121 78,85" />
<polygon fill="#fcfafb" fill-opacity="0.501961" points="215,-16 42,-16 97,53" />
<polygon fill="#fffffd" fill-opacity="0.501961" points="58,59 52,59 60,46" />
<polygon fill="#68d6e9" fill-opacity="0.501961" points="96,54 86,40 64,87" />
<polygon fill="#b0d26e" fill-opacity="0.501961" points="195,42 212,10 227,25" />
<polygon fill="#f26167" fill-opacity="0.501961" points="156,113 148,47 173,108" />
<polygon fill="#f26064" fill-opacity="0.501961" points="137,127 179,69 138,91" />
<polygon fill="#f9ffff" fill-opacity="0.501961" points="111,124 143,135 78,138" />
<polygon fill="#5fb9c9" fill-opacity="0.501961" points="86,77 99,89 72,79" />
<polygon fill="#f16467" fill-opacity="0.501961" points="104,127 117,66 84,100" />
<polygon fill="#f8f8ef" fill-opacity="0.501961" points="67,65 70,75 63,79" />
<polygon fill="#f16366" fill-opacity="0.501961" points="113,46 137,42 94,95" />
<polygon fill="#f8ffff" fill-opacity="0.501961" points="134,106 132,114 127,108" />
<polygon fill="#b2d673" fill-opacity="0.501961" points="199,10 149,33 162,13" />
<polygon fill="#63cfe3" fill-opacity="0.501961" points="47,82 62,87 62,52" />
<polygon fill="#edecee" fill-opacity="0.501961" points="44,0 14,158 -16,-3" />
<polygon fill="#b3d677" fill-opacity="0.501961" points="228,41 204,65 199,8" />
<polygon fill="#feffff" fill-opacity="0.501961" points="123,62 116,74 123,77" />
<polygon fill="#f05a5e" fill-opacity="0.501961" points="129,128 152,125 116,105" />
<polygon fill="#fffff9" fill-opacity="0.501961" points="53,54 72,47 62,45" />
<polygon fill="#ffffff" fill-opacity="0.501961" points="149,25 129,39 150,44" />
<polygon fill="#f35e65" fill-opacity="0.501961" points="180,107 186,77 138,91" />
<polygon fill="#ee5c5f" fill-opacity="0.501961" points="112,90 136,68 141,77" />
<polygon fill="#f7f7fd" fill-opacity="0.501961" points="166,3 219,-16 227,7" />
<polygon fill="#f16165" fill-opacity="0.501961" points="98,53 93,131 119,120" />
</g>
</svg>